<svg xmlns="http://www.w3.org/2000/svg" width="900" height="420" viewBox="0 0 900 420" role="img" aria-label="Synthetic layered defects schematic">
  <rect width="900" height="420" fill="#f8fafc"/>
  <text x="40" y="44" font-family="Arial, sans-serif" font-size="24" font-weight="700" fill="#111827">Figure 1. Defect placement concept</text>
  <g transform="translate(40 80)">
    <text x="0" y="0" font-family="Arial, sans-serif" font-size="18" font-weight="700" fill="#1f2937">A Random defects</text>
    <rect x="0" y="20" width="240" height="260" rx="8" fill="#ffffff" stroke="#cbd5e1"/>
    <g fill="#cbd5e1">
      <circle cx="35" cy="62" r="6"/><circle cx="75" cy="92" r="6"/><circle cx="132" cy="58" r="6"/><circle cx="196" cy="96" r="6"/>
      <circle cx="52" cy="154" r="6"/><circle cx="114" cy="135" r="6"/><circle cx="178" cy="166" r="6"/><circle cx="218" cy="138" r="6"/>
      <circle cx="36" cy="236" r="6"/><circle cx="96" cy="222" r="6"/><circle cx="152" cy="252" r="6"/><circle cx="214" cy="232" r="6"/>
    </g>
    <g fill="#ef4444">
      <circle cx="64" cy="74" r="9"/><circle cx="170" cy="122" r="9"/><circle cx="92" cy="198" r="9"/><circle cx="205" cy="254" r="9"/>
    </g>
  </g>
  <g transform="translate(330 80)">
    <text x="0" y="0" font-family="Arial, sans-serif" font-size="18" font-weight="700" fill="#1f2937">B Layered defects</text>
    <rect x="0" y="20" width="240" height="260" rx="8" fill="#ffffff" stroke="#cbd5e1"/>
    <rect x="0" y="88" width="240" height="26" fill="#fee2e2"/>
    <rect x="0" y="190" width="240" height="26" fill="#fee2e2"/>
    <g fill="#cbd5e1">
      <circle cx="35" cy="62" r="6"/><circle cx="83" cy="62" r="6"/><circle cx="132" cy="62" r="6"/><circle cx="196" cy="62" r="6"/>
      <circle cx="36" cy="160" r="6"/><circle cx="96" cy="160" r="6"/><circle cx="152" cy="160" r="6"/><circle cx="214" cy="160" r="6"/>
      <circle cx="36" cy="248" r="6"/><circle cx="96" cy="248" r="6"/><circle cx="152" cy="248" r="6"/><circle cx="214" cy="248" r="6"/>
    </g>
    <g fill="#ef4444">
      <circle cx="52" cy="101" r="9"/><circle cx="105" cy="101" r="9"/><circle cx="158" cy="101" r="9"/><circle cx="211" cy="101" r="9"/>
      <circle cx="50" cy="203" r="9"/><circle cx="112" cy="203" r="9"/><circle cx="174" cy="203" r="9"/><circle cx="220" cy="203" r="9"/>
    </g>
  </g>
  <g transform="translate(620 80)">
    <text x="0" y="0" font-family="Arial, sans-serif" font-size="18" font-weight="700" fill="#1f2937">C Transport idea</text>
    <rect x="0" y="20" width="240" height="260" rx="8" fill="#ffffff" stroke="#cbd5e1"/>
    <path d="M30 92 C90 55, 138 55, 210 92" fill="none" stroke="#2563eb" stroke-width="8" stroke-linecap="round"/>
    <path d="M30 190 C90 155, 138 155, 210 190" fill="none" stroke="#2563eb" stroke-width="8" stroke-linecap="round"/>
    <path d="M30 238 C90 272, 148 272, 210 238" fill="none" stroke="#94a3b8" stroke-width="5" stroke-dasharray="10 10" stroke-linecap="round"/>
    <text x="34" y="330" font-family="Arial, sans-serif" font-size="14" fill="#475569">Blue paths remain more stable</text>
  </g>
</svg>
